<mxfile host="app.diagrams.net" modified="2023-09-04T09:50:01.973Z" agent="Mozilla/5.0 (Windows NT 10.0; Win64; x64) AppleWebKit/537.36 (KHTML, like Gecko) Chrome/116.0.0.0 Safari/537.36" etag="AE7E1U3pOG-02E316u6i" version="21.7.2" type="device">
  <diagram name="Страница — 1" id="ftlmEqtQ1bPmkgtfjlP5">
    <mxGraphModel dx="1785" dy="1585" grid="1" gridSize="10" guides="1" tooltips="1" connect="1" arrows="1" fold="1" page="1" pageScale="1" pageWidth="827" pageHeight="1169" math="0" shadow="0">
      <root>
        <mxCell id="0" />
        <mxCell id="1" parent="0" />
        <mxCell id="YdRSbALYKynTrTzePgQp-28" value="" style="rounded=0;whiteSpace=wrap;html=1;" vertex="1" parent="1">
          <mxGeometry x="-110" y="-180" width="1170" height="1600" as="geometry" />
        </mxCell>
        <mxCell id="dRvdo31Zzhb4LiU_Meu5-6" value="&lt;font style=&quot;font-size: 15px;&quot;&gt;Клиент&lt;/font&gt;" style="shape=umlActor;verticalLabelPosition=bottom;verticalAlign=top;html=1;outlineConnect=0;" parent="1" vertex="1">
          <mxGeometry x="35" y="-90" width="50" height="100" as="geometry" />
        </mxCell>
        <mxCell id="dRvdo31Zzhb4LiU_Meu5-7" value="&lt;font style=&quot;font-size: 15px;&quot;&gt;Сотрудник,&amp;nbsp;ответственный &lt;br&gt;за оформление договора&lt;/font&gt;" style="shape=umlActor;verticalLabelPosition=bottom;verticalAlign=top;html=1;outlineConnect=0;" parent="1" vertex="1">
          <mxGeometry x="435" y="-90" width="50" height="100" as="geometry" />
        </mxCell>
        <mxCell id="dRvdo31Zzhb4LiU_Meu5-8" value="Менеджер банка" style="shape=umlActor;verticalLabelPosition=bottom;verticalAlign=top;html=1;outlineConnect=0;" parent="1" vertex="1">
          <mxGeometry x="855" y="-90" width="50" height="100" as="geometry" />
        </mxCell>
        <mxCell id="mRTXcoQssGMNAOkWr5xy-7" value="" style="edgeStyle=orthogonalEdgeStyle;rounded=0;orthogonalLoop=1;jettySize=auto;html=1;" parent="1" source="dRvdo31Zzhb4LiU_Meu5-18" target="dRvdo31Zzhb4LiU_Meu5-29" edge="1">
          <mxGeometry relative="1" as="geometry" />
        </mxCell>
        <mxCell id="dRvdo31Zzhb4LiU_Meu5-18" value="&lt;div style=&quot;font-size: 15px;&quot;&gt;Телефонный звонок&amp;nbsp;&lt;span style=&quot;background-color: initial;&quot;&gt;в банк&lt;/span&gt;&lt;/div&gt;" style="rounded=1;whiteSpace=wrap;html=1;arcSize=40;fontColor=#000000;fillColor=#ffffc0;strokeColor=#000000;" parent="1" vertex="1">
          <mxGeometry x="-7.5" y="230" width="125" height="50" as="geometry" />
        </mxCell>
        <mxCell id="dRvdo31Zzhb4LiU_Meu5-21" value="&lt;font style=&quot;font-size: 15px;&quot;&gt;НОВОЕ: Заполнение заявления на оформление договора&lt;/font&gt;" style="html=1;whiteSpace=wrap;" parent="1" vertex="1">
          <mxGeometry x="319.99" y="545.2" width="120.01" height="110" as="geometry" />
        </mxCell>
        <mxCell id="dRvdo31Zzhb4LiU_Meu5-24" value="&lt;b&gt;Заключение договора о банковском обслуживании клиента&lt;/b&gt;" style="text;html=1;strokeColor=none;fillColor=none;align=center;verticalAlign=middle;whiteSpace=wrap;rounded=0;fontSize=18;fontStyle=4" parent="1" vertex="1">
          <mxGeometry x="200" y="-130" width="550" height="30" as="geometry" />
        </mxCell>
        <mxCell id="mRTXcoQssGMNAOkWr5xy-41" style="edgeStyle=orthogonalEdgeStyle;rounded=0;orthogonalLoop=1;jettySize=auto;html=1;" parent="1" source="dRvdo31Zzhb4LiU_Meu5-27" target="mRTXcoQssGMNAOkWr5xy-40" edge="1">
          <mxGeometry relative="1" as="geometry" />
        </mxCell>
        <mxCell id="dRvdo31Zzhb4LiU_Meu5-27" value="&lt;div style=&quot;font-size: 15px;&quot;&gt;Собрать сведения о клиенте&lt;br style=&quot;border-color: var(--border-color); font-size: 14px;&quot;&gt;&lt;span style=&quot;font-size: 14px;&quot;&gt;(Know your customer)&lt;/span&gt;&lt;br style=&quot;border-color: var(--border-color); font-size: 14px;&quot;&gt;&lt;span style=&quot;font-size: 14px;&quot;&gt;по правилам внутреннего&lt;/span&gt;&lt;br style=&quot;border-color: var(--border-color); font-size: 14px;&quot;&gt;&lt;span style=&quot;font-size: 14px;&quot;&gt;контроля в банке&lt;/span&gt;&lt;br&gt;&lt;/div&gt;" style="rounded=1;whiteSpace=wrap;html=1;arcSize=40;fontColor=#000000;fillColor=#ffffc0;strokeColor=#000000;" parent="1" vertex="1">
          <mxGeometry x="302.5" y="730" width="225.01" height="100" as="geometry" />
        </mxCell>
        <mxCell id="dRvdo31Zzhb4LiU_Meu5-29" value="&lt;div style=&quot;font-size: 15px;&quot;&gt;Визит клиента в&lt;span style=&quot;background-color: initial;&quot;&gt;&amp;nbsp;банк&lt;/span&gt;&lt;/div&gt;" style="rounded=1;whiteSpace=wrap;html=1;arcSize=40;fontColor=#000000;fillColor=#ffffc0;strokeColor=#000000;" parent="1" vertex="1">
          <mxGeometry x="-7.5" y="350" width="125" height="50" as="geometry" />
        </mxCell>
        <mxCell id="mRTXcoQssGMNAOkWr5xy-3" value="" style="endArrow=block;dashed=1;endFill=0;endSize=12;html=1;rounded=0;strokeWidth=2;entryX=0;entryY=0.5;entryDx=0;entryDy=0;" parent="1" target="dRvdo31Zzhb4LiU_Meu5-21" edge="1">
          <mxGeometry width="160" relative="1" as="geometry">
            <mxPoint x="120" y="380" as="sourcePoint" />
            <mxPoint x="370" y="374.47" as="targetPoint" />
          </mxGeometry>
        </mxCell>
        <mxCell id="mRTXcoQssGMNAOkWr5xy-4" value="&lt;div style=&quot;font-size: 15px;&quot;&gt;Общение с клиентом, оценка его адекватности, соответствующие вопросы&lt;/div&gt;" style="rounded=1;whiteSpace=wrap;html=1;arcSize=40;fontColor=#000000;fillColor=#ffffc0;strokeColor=#000000;" parent="1" vertex="1">
          <mxGeometry x="385.31" y="180" width="204.37" height="70" as="geometry" />
        </mxCell>
        <mxCell id="mRTXcoQssGMNAOkWr5xy-8" value="" style="endArrow=classic;html=1;rounded=0;endFill=1;strokeWidth=1;exitX=1;exitY=0.5;exitDx=0;exitDy=0;entryX=0;entryY=0.5;entryDx=0;entryDy=0;" parent="1" source="dRvdo31Zzhb4LiU_Meu5-29" target="mRTXcoQssGMNAOkWr5xy-4" edge="1">
          <mxGeometry width="50" height="50" relative="1" as="geometry">
            <mxPoint x="280" y="270" as="sourcePoint" />
            <mxPoint x="280" y="340" as="targetPoint" />
          </mxGeometry>
        </mxCell>
        <mxCell id="mRTXcoQssGMNAOkWr5xy-9" value="" style="endArrow=classic;html=1;rounded=0;endFill=1;strokeWidth=1;" parent="1" edge="1">
          <mxGeometry width="50" height="50" relative="1" as="geometry">
            <mxPoint x="486.97" y="250" as="sourcePoint" />
            <mxPoint x="486.97" y="320" as="targetPoint" />
          </mxGeometry>
        </mxCell>
        <mxCell id="mRTXcoQssGMNAOkWr5xy-14" value="" style="endArrow=classic;html=1;rounded=0;endFill=1;strokeWidth=1;exitX=0.5;exitY=1;exitDx=0;exitDy=0;exitPerimeter=0;" parent="1" source="mRTXcoQssGMNAOkWr5xy-31" edge="1">
          <mxGeometry width="50" height="50" relative="1" as="geometry">
            <mxPoint x="490.95500000000015" y="359.99999999999994" as="sourcePoint" />
            <mxPoint x="385.01" y="425.2" as="targetPoint" />
          </mxGeometry>
        </mxCell>
        <mxCell id="mRTXcoQssGMNAOkWr5xy-16" value="" style="endArrow=classic;html=1;rounded=0;endFill=1;strokeWidth=1;exitX=0.5;exitY=1;exitDx=0;exitDy=0;exitPerimeter=0;" parent="1" source="mRTXcoQssGMNAOkWr5xy-31" edge="1">
          <mxGeometry width="50" height="50" relative="1" as="geometry">
            <mxPoint x="482.5" y="360" as="sourcePoint" />
            <mxPoint x="577.5" y="420" as="targetPoint" />
          </mxGeometry>
        </mxCell>
        <mxCell id="mRTXcoQssGMNAOkWr5xy-19" style="edgeStyle=orthogonalEdgeStyle;rounded=0;orthogonalLoop=1;jettySize=auto;html=1;entryX=0.5;entryY=0;entryDx=0;entryDy=0;" parent="1" source="mRTXcoQssGMNAOkWr5xy-17" target="dRvdo31Zzhb4LiU_Meu5-21" edge="1">
          <mxGeometry relative="1" as="geometry" />
        </mxCell>
        <mxCell id="mRTXcoQssGMNAOkWr5xy-17" value="&lt;div style=&quot;font-size: 15px;&quot;&gt;&lt;font style=&quot;font-size: 15px;&quot;&gt;Работаем дальше,&lt;/font&gt;&lt;/div&gt;&lt;font style=&quot;font-size: 15px;&quot;&gt;всё хорошо&lt;/font&gt;" style="rounded=1;whiteSpace=wrap;html=1;arcSize=40;fontColor=#000000;fillColor=#ffffc0;strokeColor=#000000;" parent="1" vertex="1">
          <mxGeometry x="310" y="425.2" width="140" height="50" as="geometry" />
        </mxCell>
        <mxCell id="mRTXcoQssGMNAOkWr5xy-27" style="edgeStyle=orthogonalEdgeStyle;rounded=0;orthogonalLoop=1;jettySize=auto;html=1;" parent="1" source="mRTXcoQssGMNAOkWr5xy-20" target="mRTXcoQssGMNAOkWr5xy-21" edge="1">
          <mxGeometry relative="1" as="geometry" />
        </mxCell>
        <mxCell id="mRTXcoQssGMNAOkWr5xy-20" value="&lt;font style=&quot;font-size: 15px;&quot;&gt;Всем лежать!&lt;br&gt;Это налёт!&lt;br&gt;&lt;/font&gt;" style="rounded=1;whiteSpace=wrap;html=1;arcSize=40;fontColor=#000000;fillColor=#ffffc0;strokeColor=#000000;" parent="1" vertex="1">
          <mxGeometry x="514.99" y="420" width="125" height="50" as="geometry" />
        </mxCell>
        <mxCell id="mRTXcoQssGMNAOkWr5xy-21" value="" style="ellipse;html=1;shape=endState;fillColor=#000000;strokeColor=#ff0000;" parent="1" vertex="1">
          <mxGeometry x="557.49" y="540" width="40" height="39" as="geometry" />
        </mxCell>
        <mxCell id="mRTXcoQssGMNAOkWr5xy-28" style="edgeStyle=orthogonalEdgeStyle;rounded=0;orthogonalLoop=1;jettySize=auto;html=1;entryX=0.5;entryY=0;entryDx=0;entryDy=0;" parent="1" source="mRTXcoQssGMNAOkWr5xy-24" target="dRvdo31Zzhb4LiU_Meu5-18" edge="1">
          <mxGeometry relative="1" as="geometry" />
        </mxCell>
        <mxCell id="mRTXcoQssGMNAOkWr5xy-24" value="" style="ellipse;html=1;shape=startState;fillColor=#000000;strokeColor=#ff0000;" parent="1" vertex="1">
          <mxGeometry x="35" y="80" width="40" height="40" as="geometry" />
        </mxCell>
        <mxCell id="mRTXcoQssGMNAOkWr5xy-30" value="&lt;font style=&quot;font-size: 15px;&quot;&gt;ВИЗИРОВАННЫЙ: Заявления на оформление договора&lt;/font&gt;" style="html=1;whiteSpace=wrap;" parent="1" vertex="1">
          <mxGeometry x="805" y="470" width="150" height="100" as="geometry" />
        </mxCell>
        <mxCell id="mRTXcoQssGMNAOkWr5xy-31" value="" style="strokeWidth=2;html=1;shape=mxgraph.flowchart.decision;whiteSpace=wrap;" parent="1" vertex="1">
          <mxGeometry x="464.99" y="320" width="45" height="40" as="geometry" />
        </mxCell>
        <mxCell id="mRTXcoQssGMNAOkWr5xy-34" value="" style="endArrow=none;html=1;rounded=0;" parent="1" edge="1">
          <mxGeometry width="50" height="50" relative="1" as="geometry">
            <mxPoint x="240" y="1360" as="sourcePoint" />
            <mxPoint x="240" y="-80" as="targetPoint" />
          </mxGeometry>
        </mxCell>
        <mxCell id="mRTXcoQssGMNAOkWr5xy-35" value="" style="endArrow=none;html=1;rounded=0;" parent="1" edge="1">
          <mxGeometry width="50" height="50" relative="1" as="geometry">
            <mxPoint x="704" y="1360" as="sourcePoint" />
            <mxPoint x="704" y="-80" as="targetPoint" />
          </mxGeometry>
        </mxCell>
        <mxCell id="mRTXcoQssGMNAOkWr5xy-36" value="" style="endArrow=none;html=1;rounded=0;" parent="1" edge="1">
          <mxGeometry width="50" height="50" relative="1" as="geometry">
            <mxPoint x="-44" y="70" as="sourcePoint" />
            <mxPoint x="1000" y="60" as="targetPoint" />
          </mxGeometry>
        </mxCell>
        <mxCell id="mRTXcoQssGMNAOkWr5xy-38" value="" style="endArrow=classic;html=1;rounded=0;endFill=1;strokeWidth=1;entryX=0.347;entryY=0;entryDx=0;entryDy=0;entryPerimeter=0;" parent="1" target="dRvdo31Zzhb4LiU_Meu5-27" edge="1">
          <mxGeometry width="50" height="50" relative="1" as="geometry">
            <mxPoint x="379.49" y="655.2" as="sourcePoint" />
            <mxPoint x="379.49" y="725.2" as="targetPoint" />
          </mxGeometry>
        </mxCell>
        <mxCell id="mRTXcoQssGMNAOkWr5xy-40" value="&lt;font style=&quot;font-size: 15px;&quot;&gt;Проверить собранную информацию&lt;/font&gt;" style="rounded=1;whiteSpace=wrap;html=1;arcSize=40;fontColor=#000000;fillColor=#ffffc0;strokeColor=#000000;" parent="1" vertex="1">
          <mxGeometry x="345.01" y="870" width="140" height="70" as="geometry" />
        </mxCell>
        <mxCell id="mRTXcoQssGMNAOkWr5xy-42" value="" style="endArrow=classic;html=1;rounded=0;endFill=1;strokeWidth=1;exitX=0.5;exitY=1;exitDx=0;exitDy=0;" parent="1" source="mRTXcoQssGMNAOkWr5xy-40" edge="1">
          <mxGeometry width="50" height="50" relative="1" as="geometry">
            <mxPoint x="414.46000000000004" y="920" as="sourcePoint" />
            <mxPoint x="414.46000000000004" y="990" as="targetPoint" />
          </mxGeometry>
        </mxCell>
        <mxCell id="mRTXcoQssGMNAOkWr5xy-43" value="" style="endArrow=classic;html=1;rounded=0;endFill=1;strokeWidth=1;exitX=0.5;exitY=1;exitDx=0;exitDy=0;exitPerimeter=0;entryX=1;entryY=0.221;entryDx=0;entryDy=0;entryPerimeter=0;" parent="1" source="mRTXcoQssGMNAOkWr5xy-45" target="mRTXcoQssGMNAOkWr5xy-50" edge="1">
          <mxGeometry width="50" height="50" relative="1" as="geometry">
            <mxPoint x="418.44500000000016" y="1030" as="sourcePoint" />
            <mxPoint x="312.5" y="1095.2" as="targetPoint" />
          </mxGeometry>
        </mxCell>
        <mxCell id="mRTXcoQssGMNAOkWr5xy-44" value="" style="endArrow=classic;html=1;rounded=0;endFill=1;strokeWidth=1;exitX=0.5;exitY=1;exitDx=0;exitDy=0;exitPerimeter=0;" parent="1" source="mRTXcoQssGMNAOkWr5xy-45" edge="1">
          <mxGeometry width="50" height="50" relative="1" as="geometry">
            <mxPoint x="409.99" y="1030" as="sourcePoint" />
            <mxPoint x="504.99" y="1090" as="targetPoint" />
          </mxGeometry>
        </mxCell>
        <mxCell id="mRTXcoQssGMNAOkWr5xy-45" value="" style="strokeWidth=2;html=1;shape=mxgraph.flowchart.decision;whiteSpace=wrap;" parent="1" vertex="1">
          <mxGeometry x="392.48" y="990" width="45" height="40" as="geometry" />
        </mxCell>
        <mxCell id="mRTXcoQssGMNAOkWr5xy-46" value="&lt;font style=&quot;font-size: 15px;&quot;&gt;Есть подозрения?&lt;/font&gt;" style="text;html=1;strokeColor=none;fillColor=none;align=center;verticalAlign=middle;whiteSpace=wrap;rounded=0;" parent="1" vertex="1">
          <mxGeometry x="437.48" y="950" width="60" height="30" as="geometry" />
        </mxCell>
        <mxCell id="mRTXcoQssGMNAOkWr5xy-48" value="да" style="text;html=1;strokeColor=none;fillColor=none;align=center;verticalAlign=middle;whiteSpace=wrap;rounded=0;fontSize=15;" parent="1" vertex="1">
          <mxGeometry x="322.5" y="1020" width="60" height="30" as="geometry" />
        </mxCell>
        <mxCell id="mRTXcoQssGMNAOkWr5xy-49" value="нет" style="text;html=1;strokeColor=none;fillColor=none;align=center;verticalAlign=middle;whiteSpace=wrap;rounded=0;fontSize=15;" parent="1" vertex="1">
          <mxGeometry x="454.99" y="1020" width="60" height="30" as="geometry" />
        </mxCell>
        <mxCell id="mRTXcoQssGMNAOkWr5xy-50" value="" style="ellipse;html=1;shape=endState;fillColor=#000000;strokeColor=#ff0000;" parent="1" vertex="1">
          <mxGeometry x="282.5" y="1080" width="40" height="39" as="geometry" />
        </mxCell>
        <mxCell id="YdRSbALYKynTrTzePgQp-2" value="&lt;font style=&quot;font-size: 15px;&quot;&gt;Сформировать договор&lt;/font&gt;" style="rounded=1;whiteSpace=wrap;html=1;arcSize=40;fontColor=#000000;fillColor=#ffffc0;strokeColor=#000000;" vertex="1" parent="1">
          <mxGeometry x="497.48" y="1080" width="140" height="70" as="geometry" />
        </mxCell>
        <mxCell id="YdRSbALYKynTrTzePgQp-3" value="&lt;font style=&quot;font-size: 15px;&quot;&gt;Проект: Договор о банковском обслуживании&lt;/font&gt;" style="html=1;whiteSpace=wrap;" vertex="1" parent="1">
          <mxGeometry x="575" y="1240" width="120" height="70" as="geometry" />
        </mxCell>
        <mxCell id="YdRSbALYKynTrTzePgQp-4" value="" style="endArrow=block;dashed=1;endFill=0;endSize=12;html=1;rounded=0;strokeWidth=2;exitX=0.629;exitY=1.004;exitDx=0;exitDy=0;exitPerimeter=0;" edge="1" parent="1" source="YdRSbALYKynTrTzePgQp-2" target="YdRSbALYKynTrTzePgQp-3">
          <mxGeometry width="160" relative="1" as="geometry">
            <mxPoint x="602.8000000000001" y="1010" as="sourcePoint" />
            <mxPoint x="649.9999999999999" y="1230" as="targetPoint" />
          </mxGeometry>
        </mxCell>
        <mxCell id="YdRSbALYKynTrTzePgQp-6" value="" style="endArrow=classic;html=1;rounded=0;endFill=1;strokeWidth=1;entryX=0.25;entryY=1;entryDx=0;entryDy=0;" edge="1" parent="1" source="YdRSbALYKynTrTzePgQp-2" target="YdRSbALYKynTrTzePgQp-7">
          <mxGeometry width="50" height="50" relative="1" as="geometry">
            <mxPoint x="782.5" y="1030" as="sourcePoint" />
            <mxPoint x="822.5" y="1040" as="targetPoint" />
          </mxGeometry>
        </mxCell>
        <mxCell id="YdRSbALYKynTrTzePgQp-7" value="&lt;div style=&quot;font-size: 15px;&quot;&gt;Отправить на утверждение&lt;/div&gt;" style="rounded=1;whiteSpace=wrap;html=1;arcSize=40;fontColor=#000000;fillColor=#ffffc0;strokeColor=#000000;" vertex="1" parent="1">
          <mxGeometry x="570" y="790" width="125" height="50" as="geometry" />
        </mxCell>
        <mxCell id="YdRSbALYKynTrTzePgQp-8" value="" style="curved=1;endArrow=classic;html=1;rounded=0;exitX=0.207;exitY=0.986;exitDx=0;exitDy=0;exitPerimeter=0;" edge="1" parent="1" source="YdRSbALYKynTrTzePgQp-2">
          <mxGeometry width="50" height="50" relative="1" as="geometry">
            <mxPoint x="385.31" y="1150" as="sourcePoint" />
            <mxPoint x="142.5" y="1080" as="targetPoint" />
            <Array as="points">
              <mxPoint x="442.5" y="1180" />
              <mxPoint x="312.5" y="1170" />
            </Array>
          </mxGeometry>
        </mxCell>
        <mxCell id="YdRSbALYKynTrTzePgQp-10" value="&lt;font style=&quot;font-size: 15px;&quot;&gt;Подтвердить информацию в договоре&lt;/font&gt;" style="rounded=1;whiteSpace=wrap;html=1;arcSize=40;fontColor=#000000;fillColor=#ffffc0;strokeColor=#000000;" vertex="1" parent="1">
          <mxGeometry x="17.5" y="1010" width="140" height="70" as="geometry" />
        </mxCell>
        <mxCell id="YdRSbALYKynTrTzePgQp-13" value="" style="curved=1;endArrow=classic;html=1;rounded=0;dashed=1;strokeWidth=2;entryX=0.5;entryY=1;entryDx=0;entryDy=0;exitX=0;exitY=1;exitDx=0;exitDy=0;" edge="1" parent="1" source="YdRSbALYKynTrTzePgQp-3" target="YdRSbALYKynTrTzePgQp-10">
          <mxGeometry width="50" height="50" relative="1" as="geometry">
            <mxPoint x="590" y="1299" as="sourcePoint" />
            <mxPoint x="206.18" y="1230" as="targetPoint" />
            <Array as="points">
              <mxPoint x="506.18" y="1330" />
              <mxPoint x="376.18" y="1320" />
            </Array>
          </mxGeometry>
        </mxCell>
        <mxCell id="YdRSbALYKynTrTzePgQp-14" value="" style="endArrow=block;dashed=1;endFill=0;endSize=12;html=1;rounded=0;strokeWidth=2;entryX=0.75;entryY=1;entryDx=0;entryDy=0;exitX=0.75;exitY=0;exitDx=0;exitDy=0;" edge="1" parent="1" source="YdRSbALYKynTrTzePgQp-3" target="YdRSbALYKynTrTzePgQp-7">
          <mxGeometry width="160" relative="1" as="geometry">
            <mxPoint x="760" y="1230" as="sourcePoint" />
            <mxPoint x="823.9999999999999" y="1310" as="targetPoint" />
          </mxGeometry>
        </mxCell>
        <mxCell id="YdRSbALYKynTrTzePgQp-15" value="Заверить договор подписью и печатью" style="rounded=1;whiteSpace=wrap;html=1;arcSize=40;fontColor=#000000;fillColor=#ffffc0;strokeColor=#000000;fontSize=15;" vertex="1" parent="1">
          <mxGeometry x="827" y="720" width="157.5" height="80" as="geometry" />
        </mxCell>
        <mxCell id="YdRSbALYKynTrTzePgQp-16" value="" style="endArrow=classic;html=1;rounded=0;endFill=1;strokeWidth=1;exitX=1;exitY=0.5;exitDx=0;exitDy=0;entryX=0;entryY=0.75;entryDx=0;entryDy=0;" edge="1" parent="1" source="YdRSbALYKynTrTzePgQp-7" target="YdRSbALYKynTrTzePgQp-15">
          <mxGeometry width="50" height="50" relative="1" as="geometry">
            <mxPoint x="770" y="838" as="sourcePoint" />
            <mxPoint x="770" y="908" as="targetPoint" />
          </mxGeometry>
        </mxCell>
        <mxCell id="YdRSbALYKynTrTzePgQp-17" value="" style="endArrow=block;dashed=1;endFill=0;endSize=12;html=1;rounded=0;strokeWidth=2;exitX=0.5;exitY=1;exitDx=0;exitDy=0;entryX=0.5;entryY=0;entryDx=0;entryDy=0;" edge="1" parent="1" source="mRTXcoQssGMNAOkWr5xy-30" target="YdRSbALYKynTrTzePgQp-15">
          <mxGeometry width="160" relative="1" as="geometry">
            <mxPoint x="827" y="640" as="sourcePoint" />
            <mxPoint x="862" y="730" as="targetPoint" />
          </mxGeometry>
        </mxCell>
        <mxCell id="YdRSbALYKynTrTzePgQp-18" value="" style="curved=1;endArrow=classic;html=1;rounded=0;exitX=0;exitY=0;exitDx=0;exitDy=0;dashed=1;strokeWidth=2;entryX=0.817;entryY=-0.044;entryDx=0;entryDy=0;entryPerimeter=0;" edge="1" parent="1" source="mRTXcoQssGMNAOkWr5xy-30" target="YdRSbALYKynTrTzePgQp-20">
          <mxGeometry width="50" height="50" relative="1" as="geometry">
            <mxPoint x="753.5" y="699" as="sourcePoint" />
            <mxPoint x="130" y="710" as="targetPoint" />
            <Array as="points">
              <mxPoint x="650" y="270" />
              <mxPoint x="270" y="320" />
            </Array>
          </mxGeometry>
        </mxCell>
        <mxCell id="YdRSbALYKynTrTzePgQp-19" value="" style="curved=1;endArrow=classic;html=1;rounded=0;entryX=0.923;entryY=0.913;entryDx=0;entryDy=0;entryPerimeter=0;" edge="1" parent="1" source="YdRSbALYKynTrTzePgQp-15" target="YdRSbALYKynTrTzePgQp-20">
          <mxGeometry width="50" height="50" relative="1" as="geometry">
            <mxPoint x="838.49" y="819" as="sourcePoint" />
            <mxPoint x="140" y="770" as="targetPoint" />
            <Array as="points">
              <mxPoint x="760" y="870" />
              <mxPoint x="300" y="860" />
            </Array>
          </mxGeometry>
        </mxCell>
        <mxCell id="YdRSbALYKynTrTzePgQp-20" value="&lt;div style=&quot;font-size: 15px;&quot;&gt;Пользоваться услугами банка и ДБО&lt;/div&gt;" style="rounded=1;whiteSpace=wrap;html=1;arcSize=40;fontColor=#000000;fillColor=#ffffc0;strokeColor=#000000;" vertex="1" parent="1">
          <mxGeometry x="10" y="690" width="120" height="70" as="geometry" />
        </mxCell>
        <mxCell id="YdRSbALYKynTrTzePgQp-23" value="" style="curved=1;endArrow=classic;html=1;rounded=0;strokeWidth=1;exitX=0.454;exitY=0.014;exitDx=0;exitDy=0;exitPerimeter=0;entryX=0.5;entryY=0;entryDx=0;entryDy=0;" edge="1" parent="1" source="YdRSbALYKynTrTzePgQp-10" target="YdRSbALYKynTrTzePgQp-7">
          <mxGeometry width="50" height="50" relative="1" as="geometry">
            <mxPoint x="130" y="940" as="sourcePoint" />
            <mxPoint x="430" y="670" as="targetPoint" />
            <Array as="points">
              <mxPoint x="100" y="910" />
              <mxPoint x="280" y="690" />
              <mxPoint x="500" y="670" />
            </Array>
          </mxGeometry>
        </mxCell>
        <mxCell id="YdRSbALYKynTrTzePgQp-25" value="" style="ellipse;html=1;shape=endState;fillColor=#000000;strokeColor=#ff0000;" vertex="1" parent="1">
          <mxGeometry x="-80" y="800" width="40" height="39" as="geometry" />
        </mxCell>
        <mxCell id="YdRSbALYKynTrTzePgQp-26" value="" style="endArrow=classic;html=1;rounded=0;endFill=1;strokeWidth=1;exitX=0;exitY=0.5;exitDx=0;exitDy=0;" edge="1" parent="1" source="YdRSbALYKynTrTzePgQp-20">
          <mxGeometry width="50" height="50" relative="1" as="geometry">
            <mxPoint x="117.5" y="600" as="sourcePoint" />
            <mxPoint x="-50" y="800" as="targetPoint" />
            <Array as="points">
              <mxPoint x="-20" y="740" />
            </Array>
          </mxGeometry>
        </mxCell>
      </root>
    </mxGraphModel>
  </diagram>
</mxfile>
